<svg width="187" height="57" viewBox="0 0 187 57" fill="none" xmlns="http://www.w3.org/2000/svg">
<g filter="url(#filter0_i_6_389)">
<path d="M185.656 20.2166L178.703 20.944C178.412 19.8772 177.781 18.9364 176.811 18.1218C175.842 17.2877 174.474 16.8707 172.709 16.8707C171.119 16.8707 169.78 17.2198 168.694 17.9181C167.627 18.6164 167.094 19.5086 167.094 20.5948C167.094 21.5453 167.443 22.3308 168.141 22.9515C168.859 23.5528 170.042 24.0377 171.691 24.4063L177.248 25.5701C180.293 26.2101 182.572 27.2576 184.085 28.7123C185.598 30.167 186.355 32.0485 186.355 34.3567C186.355 36.3933 185.763 38.1972 184.58 39.7683C183.397 41.3395 181.758 42.5614 179.663 43.4343C177.587 44.3071 175.192 44.7435 172.476 44.7435C168.5 44.7435 165.3 43.9095 162.875 42.2414C160.47 40.5539 159.025 38.2166 158.54 35.2295L166.017 34.5313C166.347 35.986 167.065 37.0916 168.17 37.8481C169.295 38.5851 170.731 38.9537 172.476 38.9537C174.3 38.9537 175.764 38.5851 176.87 37.8481C177.975 37.0916 178.528 36.1703 178.528 35.0841C178.528 33.2608 177.073 32.0194 174.164 31.3599L168.607 30.1961C165.484 29.5173 163.176 28.4213 161.682 26.9084C160.189 25.3761 159.442 23.4267 159.442 21.0604C159.442 19.0431 159.995 17.2974 161.1 15.8233C162.206 14.3491 163.748 13.2048 165.726 12.3901C167.705 11.5754 169.994 11.1681 172.593 11.1681C176.414 11.1681 179.411 11.9925 181.583 13.6412C183.775 15.2705 185.133 17.4623 185.656 20.2166Z" fill="#432546"/>
<path d="M134.275 56.2651C133.227 56.2845 132.258 56.2069 131.365 56.0323C130.492 55.8772 129.784 55.6929 129.241 55.4795L131.045 49.5151L131.423 49.6315C132.975 50.0388 134.294 50.0679 135.38 49.7188C136.486 49.3696 137.369 48.3125 138.028 46.5474L138.668 44.8017L126.914 11.5754H135.031L142.509 36.1606H142.858L150.364 11.5754H158.54L145.505 48.0313C144.904 49.7575 144.109 51.2317 143.12 52.4537C142.13 53.695 140.908 54.6358 139.454 55.2759C137.999 55.9354 136.273 56.2651 134.275 56.2651Z" fill="#432546"/>
<path d="M109.777 44.7726C107.702 44.7726 105.839 44.4041 104.191 43.667C102.542 42.9106 101.242 41.805 100.292 40.3502C99.3416 38.8955 98.8664 37.1013 98.8664 34.9677C98.8664 33.1444 99.2058 31.6315 99.8847 30.4289C100.564 29.2263 101.485 28.2662 102.649 27.5485C103.832 26.8308 105.161 26.2877 106.635 25.9192C108.109 25.5313 109.631 25.2597 111.203 25.1045C113.123 24.8912 114.675 24.7069 115.858 24.5517C117.041 24.3966 117.894 24.1444 118.418 23.7953C118.961 23.4461 119.233 22.903 119.233 22.166V22.0205C119.233 20.4494 118.767 19.2274 117.836 18.3545C116.905 17.4817 115.547 17.0453 113.763 17.0453C111.881 17.0453 110.388 17.4526 109.282 18.2673C108.196 19.0819 107.459 20.042 107.071 21.1476L99.9429 20.1293C100.505 18.1509 101.436 16.5022 102.736 15.1832C104.036 13.8448 105.616 12.8459 107.478 12.1864C109.36 11.5076 111.435 11.1681 113.705 11.1681C115.256 11.1681 116.808 11.3524 118.36 11.7209C119.912 12.0701 121.337 12.6714 122.637 13.5248C123.936 14.3782 124.974 15.5226 125.75 16.958C126.526 18.3933 126.914 20.1875 126.914 22.3405V44.1035H119.553V39.6229H119.32C118.855 40.5151 118.195 41.3589 117.342 42.1541C116.508 42.93 115.46 43.5604 114.199 44.0453C112.958 44.5302 111.484 44.7726 109.777 44.7726ZM111.726 39.1283C113.278 39.1283 114.616 38.8276 115.741 38.2263C116.866 37.6056 117.739 36.791 118.36 35.7823C118.981 34.7543 119.291 33.639 119.291 32.4364V28.625C119.039 28.819 118.631 29.0032 118.069 29.1778C117.506 29.333 116.866 29.4785 116.149 29.6142C115.431 29.75 114.723 29.8664 114.025 29.9634C113.346 30.0604 112.754 30.1379 112.25 30.1961C111.106 30.3513 110.078 30.6132 109.166 30.9817C108.274 31.3308 107.566 31.8157 107.042 32.4364C106.518 33.0571 106.256 33.8621 106.256 34.8513C106.256 36.2673 106.77 37.3341 107.798 38.0517C108.827 38.7694 110.136 39.1283 111.726 39.1283Z" fill="#432546"/>
<path d="M48.272 44.6853C44.7612 44.6853 41.7548 43.8125 39.2526 42.0668C36.7699 40.3017 34.869 37.7705 33.55 34.4731C32.2311 31.1563 31.5716 27.1509 31.5716 22.4569C31.5716 17.7629 32.2311 13.7575 33.55 10.4407C34.869 7.10453 36.7699 4.56358 39.2526 2.81789C41.7548 1.05281 44.7612 0.170265 48.272 0.170265C51.7634 0.170265 54.7602 1.05281 57.2623 2.81789C59.7645 4.58298 61.675 7.12393 62.994 10.4407C64.313 13.7575 64.9725 17.7629 64.9725 22.4569C64.9725 27.1509 64.313 31.1563 62.994 34.4731C61.675 37.7705 59.7742 40.3017 57.2914 42.0668C54.8087 43.8125 51.8022 44.6853 48.272 44.6853ZM48.272 38.1099C50.1535 38.1099 51.744 37.4989 53.0436 36.2769C54.3625 35.055 55.3615 33.2802 56.0403 30.9526C56.7386 28.6056 57.0878 25.7737 57.0878 22.4569C57.0878 19.1207 56.7386 16.2791 56.0403 13.9321C55.3615 11.5851 54.3625 9.80065 53.0436 8.57867C51.744 7.33729 50.1535 6.7166 48.272 6.7166C45.4401 6.7166 43.258 8.09376 41.7257 10.8481C40.2128 13.583 39.4563 17.4526 39.4563 22.4569C39.4563 25.7737 39.7957 28.6056 40.4746 30.9526C41.1535 33.2802 42.1524 35.055 43.4714 36.2769C44.7903 37.4989 46.3906 38.1099 48.272 38.1099Z" fill="#794C7D"/>
<path d="M0.535553 36.0733V29.8179L18.9526 0.75215H24.1315V9.65517H20.9601L8.56573 29.2651V29.6142H34.2565V36.0733H0.535553ZM21.1929 44.1034V34.1821L21.3093 31.3599V0.75215H28.6993V44.1034H21.1929Z" fill="#794C7D"/>
<path fill-rule="evenodd" clip-rule="evenodd" d="M63.1379 44.1034V38.7425C64.0553 37.5008 64.8349 36.0776 65.4767 34.4731C66.7957 31.1563 67.4552 27.1509 67.4552 22.4569C67.4552 17.7629 66.7957 13.7575 65.4767 10.4407C64.8365 8.83076 64.0569 7.40358 63.1379 6.15921V0.752152H78.1217C82.4278 0.752152 86.1228 1.6153 89.2069 3.34159C92.3103 5.06788 94.6961 7.55064 96.3642 10.7899C98.0323 14.0291 98.8663 17.8987 98.8663 22.3987C98.8663 26.8987 98.0323 30.778 96.3642 34.0366C94.6961 37.2759 92.2909 39.7683 89.1487 41.514C86.0258 43.2403 82.2629 44.1034 77.8599 44.1034H63.1379ZM70.9935 37.2953V7.56034H77.6562C80.6045 7.56034 83.0776 8.11314 85.0754 9.21875C87.0732 10.305 88.5765 11.944 89.5851 14.1358C90.5937 16.3276 91.098 19.0819 91.098 22.3987C91.098 25.7155 90.584 28.4795 89.556 30.6907C88.5474 32.9019 87.0248 34.5603 84.9881 35.6659C82.9709 36.7522 80.459 37.2953 77.4526 37.2953H70.9935Z" fill="#432546"/>
</g>
<defs>
<filter id="filter0_i_6_389" x="0.535553" y="0.170265" width="188.302" height="56.0977" filterUnits="userSpaceOnUse" color-interpolation-filters="sRGB">
<feFlood flood-opacity="0" result="BackgroundImageFix"/>
<feBlend mode="normal" in="SourceGraphic" in2="BackgroundImageFix" result="shape"/>
<feColorMatrix in="SourceAlpha" type="matrix" values="0 0 0 0 0 0 0 0 0 0 0 0 0 0 0 0 0 0 127 0" result="hardAlpha"/>
<feOffset dx="2.48276"/>
<feGaussianBlur stdDeviation="1.48966"/>
<feComposite in2="hardAlpha" operator="arithmetic" k2="-1" k3="1"/>
<feColorMatrix type="matrix" values="0 0 0 0 0.35053 0 0 0 0 0.35053 0 0 0 0 0.35053 0 0 0 0.5 0"/>
<feBlend mode="normal" in2="shape" result="effect1_innerShadow_6_389"/>
</filter>
</defs>
</svg>
