<svg width="889" height="269" viewBox="0 0 889 269" fill="none" xmlns="http://www.w3.org/2000/svg">
<g filter="url(#filter0_i_77_21)">
<path d="M884.714 95.8038L851.481 99.28C850.091 94.1816 847.078 89.6857 842.443 85.7924C837.808 81.8064 831.273 79.8134 822.837 79.8134C815.236 79.8134 808.84 81.4819 803.649 84.8191C798.55 88.1562 796.001 92.4203 796.001 97.6115C796.001 102.154 797.67 105.908 801.007 108.874C804.437 111.748 810.091 114.065 817.971 115.827L844.529 121.389C859.083 124.448 869.975 129.453 877.205 136.406C884.436 143.358 888.051 152.35 888.051 163.381C888.051 173.114 885.224 181.735 879.569 189.244C873.914 196.752 866.081 202.592 856.07 206.764C846.151 210.935 834.703 213.021 821.725 213.021C802.722 213.021 787.427 209.035 775.839 201.063C764.345 192.998 757.439 181.828 755.121 167.552L790.857 164.215C792.432 171.168 795.862 176.451 801.146 180.067C806.523 183.589 813.382 185.351 821.725 185.351C830.439 185.351 837.438 183.589 842.721 180.067C848.005 176.451 850.647 172.048 850.647 166.857C850.647 158.144 843.695 152.211 829.79 149.059L803.232 143.497C788.307 140.253 777.276 135.015 770.138 127.785C763.001 120.462 759.432 111.145 759.432 99.8362C759.432 90.1956 762.074 81.8527 767.357 74.8076C772.641 67.7626 780.011 62.2934 789.466 58.4C798.921 54.5067 809.86 52.56 822.281 52.56C840.543 52.56 854.865 56.4997 865.247 64.3791C875.722 72.1657 882.211 82.6407 884.714 95.8038Z" fill="#F0E2F2"/>
<path d="M639.156 268.084C634.15 268.177 629.515 267.806 625.251 266.971C621.079 266.23 617.696 265.349 615.1 264.33L623.721 235.825L625.529 236.381C632.945 238.328 639.248 238.467 644.439 236.798C649.723 235.13 653.941 230.077 657.093 221.642L660.152 213.299L603.977 54.5067H642.771L678.506 172.002H680.175L716.049 54.5067H755.121L692.828 228.733C689.954 236.984 686.154 244.029 681.426 249.869C676.698 255.801 670.858 260.297 663.906 263.356C656.954 266.508 648.703 268.084 639.156 268.084Z" fill="#F0E2F2"/>
<path d="M522.078 213.16C512.159 213.16 503.26 211.399 495.38 207.876C487.501 204.261 481.29 198.977 476.748 192.025C472.206 185.072 469.935 176.498 469.935 166.301C469.935 157.587 471.557 150.357 474.801 144.61C478.046 138.862 482.449 134.274 488.011 130.844C493.665 127.414 500.015 124.818 507.06 123.057C514.105 121.203 521.382 119.905 528.891 119.164C538.068 118.144 545.484 117.264 551.138 116.522C556.793 115.78 560.872 114.575 563.375 112.907C565.97 111.238 567.268 108.643 567.268 105.12V104.425C567.268 96.9163 565.043 91.0762 560.594 86.9048C556.144 82.7334 549.655 80.6477 541.127 80.6477C532.135 80.6477 524.997 82.5943 519.714 86.4877C514.523 90.381 511 94.9696 509.146 100.253L475.079 95.3867C477.768 85.9315 482.217 78.0521 488.428 71.7486C494.639 65.3524 502.194 60.5785 511.093 57.4267C520.084 54.1823 530.003 52.5601 540.849 52.5601C548.265 52.5601 555.681 53.4407 563.097 55.202C570.512 56.8705 577.326 59.7442 583.537 63.8229C589.747 67.9016 594.707 73.3709 598.415 80.2305C602.123 87.0902 603.977 95.6648 603.977 105.954V209.962H568.797V188.549H567.685C565.46 192.813 562.309 196.845 558.23 200.646C554.244 204.354 549.238 207.366 543.213 209.684C537.28 212.001 530.235 213.16 522.078 213.16ZM531.394 186.185C538.81 186.185 545.206 184.748 550.582 181.874C555.959 178.908 560.13 175.015 563.097 170.194C566.063 165.281 567.546 159.951 567.546 154.204V135.989C566.341 136.916 564.394 137.796 561.706 138.631C559.018 139.372 555.959 140.067 552.529 140.716C549.099 141.365 545.716 141.921 542.378 142.385C539.134 142.848 536.307 143.219 533.897 143.497C528.427 144.239 523.514 145.49 519.157 147.251C514.893 148.92 511.51 151.238 509.007 154.204C506.504 157.17 505.253 161.017 505.253 165.745C505.253 172.512 507.709 177.61 512.622 181.04C517.535 184.47 523.792 186.185 531.394 186.185Z" fill="#F0E2F2"/>
<path d="M228.138 212.743C211.36 212.743 196.992 208.571 185.033 200.229C173.168 191.793 164.084 179.696 157.78 163.937C151.477 148.086 148.325 128.944 148.325 106.51C148.325 84.0775 151.477 64.9352 157.78 49.0838C164.084 33.1397 173.168 20.9962 185.033 12.6533C196.992 4.21778 211.36 0 228.138 0C244.824 0 259.146 4.21778 271.104 12.6533C283.062 21.0889 292.193 33.2324 298.496 49.0838C304.8 64.9352 307.952 84.0775 307.952 106.51C307.952 128.944 304.8 148.086 298.496 163.937C292.193 179.696 283.108 191.793 271.243 200.229C259.378 208.571 245.009 212.743 228.138 212.743ZM228.138 181.318C237.13 181.318 244.731 178.398 250.942 172.558C257.246 166.718 262.02 158.236 265.264 147.112C268.601 135.896 270.27 122.362 270.27 106.51C270.27 90.5664 268.601 76.986 265.264 65.7695C262.02 54.553 257.246 46.0248 250.942 40.1848C244.731 34.2521 237.13 31.2857 228.138 31.2857C214.604 31.2857 204.176 37.8673 196.853 51.0305C189.622 64.101 186.007 82.5943 186.007 106.51C186.007 122.362 187.629 135.896 190.873 147.112C194.118 158.236 198.892 166.718 205.195 172.558C211.499 178.398 219.146 181.318 228.138 181.318Z" fill="#F0E2F2"/>
<path d="M0 171.585V141.689L88.0171 2.7809H112.768V45.3295H97.6114L38.3771 139.048V140.716H161.156V171.585H0ZM98.7238 209.962V162.547L99.28 149.059V2.7809H134.598V209.962H98.7238Z" fill="#F0E2F2"/>
<path fill-rule="evenodd" clip-rule="evenodd" d="M299.184 209.962V184.341C303.568 178.407 307.294 171.606 310.362 163.937C316.665 148.086 319.817 128.943 319.817 106.51C319.817 84.0775 316.665 64.9352 310.362 49.0838C307.302 41.3895 303.576 34.5689 299.184 28.6219V2.78091H370.794C391.373 2.78091 409.032 6.90599 423.771 15.1561C438.602 23.4063 450.004 35.2717 457.976 50.7523C465.949 66.233 469.935 84.7263 469.935 106.232C469.935 127.738 465.949 146.278 457.976 161.851C450.004 177.332 438.51 189.244 423.493 197.587C408.568 205.837 390.585 209.962 369.542 209.962H299.184ZM336.727 177.425V35.3181H368.569C382.659 35.3181 394.478 37.96 404.026 43.2438C413.574 48.4349 420.758 56.2679 425.578 66.7428C430.399 77.2178 432.809 90.3809 432.809 106.232C432.809 122.084 430.352 135.293 425.439 145.861C420.619 156.429 413.342 164.354 403.609 169.638C393.968 174.829 381.964 177.425 367.595 177.425H336.727Z" fill="#F0E2F2"/>
</g>
<defs>
<filter id="filter0_i_77_21" x="0" y="0" width="899.916" height="268.098" filterUnits="userSpaceOnUse" color-interpolation-filters="sRGB">
<feFlood flood-opacity="0" result="BackgroundImageFix"/>
<feBlend mode="normal" in="SourceGraphic" in2="BackgroundImageFix" result="shape"/>
<feColorMatrix in="SourceAlpha" type="matrix" values="0 0 0 0 0 0 0 0 0 0 0 0 0 0 0 0 0 0 127 0" result="hardAlpha"/>
<feOffset dx="11.8654"/>
<feGaussianBlur stdDeviation="7.11924"/>
<feComposite in2="hardAlpha" operator="arithmetic" k2="-1" k3="1"/>
<feColorMatrix type="matrix" values="0 0 0 0 0.35053 0 0 0 0 0.35053 0 0 0 0 0.35053 0 0 0 0.5 0"/>
<feBlend mode="normal" in2="shape" result="effect1_innerShadow_77_21"/>
</filter>
</defs>
</svg>
